<mxfile host="Electron" agent="Mozilla/5.0 (Windows NT 10.0; Win64; x64) AppleWebKit/537.36 (KHTML, like Gecko) draw.io/24.7.17 Chrome/128.0.6613.36 Electron/32.0.1 Safari/537.36" version="24.7.17">
  <diagram name="Page-1" id="vBFBwWcGmU8iXVVEff_w">
    <mxGraphModel dx="3722" dy="2207" grid="1" gridSize="10" guides="1" tooltips="1" connect="1" arrows="1" fold="1" page="1" pageScale="1" pageWidth="827" pageHeight="1169" math="0" shadow="0">
      <root>
        <mxCell id="0" />
        <mxCell id="1" parent="0" />
        <mxCell id="Lp6GJttOj30es9o93M_a-1" value="&lt;h1&gt;&lt;font face=&quot;Times New Roman&quot; style=&quot;font-size: 24px;&quot;&gt;&lt;u&gt;Diagramme de cas d&#39;utilisation de Projet Gestion Note d&#39;Une Ecole&amp;nbsp;&lt;/u&gt;&lt;/font&gt;&lt;/h1&gt;" style="text;html=1;align=center;verticalAlign=middle;whiteSpace=wrap;rounded=0;" vertex="1" parent="1">
          <mxGeometry x="-770" y="-267.5" width="1020" height="257.5" as="geometry" />
        </mxCell>
        <mxCell id="Lp6GJttOj30es9o93M_a-2" value="Administrateur" style="rounded=0;whiteSpace=wrap;html=1;fillColor=#dae8fc;strokeColor=#6c8ebf;" vertex="1" parent="1">
          <mxGeometry x="-492" y="-10" width="240" height="60" as="geometry" />
        </mxCell>
        <mxCell id="Lp6GJttOj30es9o93M_a-3" value="" style="endArrow=classic;html=1;rounded=0;entryX=0.395;entryY=0.067;entryDx=0;entryDy=0;entryPerimeter=0;" edge="1" parent="1" source="Lp6GJttOj30es9o93M_a-2" target="Lp6GJttOj30es9o93M_a-4">
          <mxGeometry width="50" height="50" relative="1" as="geometry">
            <mxPoint x="-100" y="370" as="sourcePoint" />
            <mxPoint x="-50" y="320" as="targetPoint" />
          </mxGeometry>
        </mxCell>
        <mxCell id="Lp6GJttOj30es9o93M_a-4" value="Ajouter un étudiant" style="rounded=0;whiteSpace=wrap;html=1;fillColor=#dae8fc;strokeColor=#6c8ebf;" vertex="1" parent="1">
          <mxGeometry x="-450" y="290" width="200" height="30" as="geometry" />
        </mxCell>
        <mxCell id="Lp6GJttOj30es9o93M_a-18" value="&lt;font style=&quot;font-size: 24px;&quot;&gt;+&lt;/font&gt;" style="text;html=1;align=center;verticalAlign=middle;whiteSpace=wrap;rounded=0;" vertex="1" parent="1">
          <mxGeometry x="-390" y="320" width="60" height="30" as="geometry" />
        </mxCell>
        <mxCell id="Lp6GJttOj30es9o93M_a-19" value="Afficher Classe" style="rounded=0;whiteSpace=wrap;html=1;fillColor=#dae8fc;strokeColor=#6c8ebf;" vertex="1" parent="1">
          <mxGeometry x="-445" y="340" width="195" height="50" as="geometry" />
        </mxCell>
        <mxCell id="Lp6GJttOj30es9o93M_a-20" value="&lt;font style=&quot;font-size: 24px;&quot;&gt;+&lt;/font&gt;" style="text;html=1;align=center;verticalAlign=middle;whiteSpace=wrap;rounded=0;" vertex="1" parent="1">
          <mxGeometry x="-390" y="390" width="60" height="30" as="geometry" />
        </mxCell>
        <mxCell id="Lp6GJttOj30es9o93M_a-21" value="Gerer Etudiant" style="rounded=0;whiteSpace=wrap;html=1;fillColor=#dae8fc;strokeColor=#6c8ebf;" vertex="1" parent="1">
          <mxGeometry x="-440" y="430" width="200" height="50" as="geometry" />
        </mxCell>
        <mxCell id="Lp6GJttOj30es9o93M_a-22" value="&lt;font style=&quot;font-size: 24px;&quot;&gt;+&lt;/font&gt;" style="text;html=1;align=center;verticalAlign=middle;whiteSpace=wrap;rounded=0;" vertex="1" parent="1">
          <mxGeometry x="-390" y="490" width="60" height="30" as="geometry" />
        </mxCell>
        <mxCell id="Lp6GJttOj30es9o93M_a-23" value="Calculer moyenne de tout les etudiant" style="rounded=0;whiteSpace=wrap;html=1;fillColor=#dae8fc;strokeColor=#6c8ebf;" vertex="1" parent="1">
          <mxGeometry x="-440" y="530" width="200" height="50" as="geometry" />
        </mxCell>
        <mxCell id="Lp6GJttOj30es9o93M_a-24" value="&lt;font style=&quot;font-size: 24px;&quot;&gt;+&lt;/font&gt;" style="text;html=1;align=center;verticalAlign=middle;whiteSpace=wrap;rounded=0;" vertex="1" parent="1">
          <mxGeometry x="-390" y="600" width="60" height="30" as="geometry" />
        </mxCell>
        <mxCell id="Lp6GJttOj30es9o93M_a-26" value="Quitter Application" style="triangle;whiteSpace=wrap;html=1;fillColor=#dae8fc;strokeColor=#6c8ebf;" vertex="1" parent="1">
          <mxGeometry x="-430" y="710" width="199" height="200" as="geometry" />
        </mxCell>
        <mxCell id="Lp6GJttOj30es9o93M_a-28" value="" style="endArrow=none;html=1;rounded=0;exitX=1;exitY=0.5;exitDx=0;exitDy=0;" edge="1" parent="1" source="Lp6GJttOj30es9o93M_a-21">
          <mxGeometry width="50" height="50" relative="1" as="geometry">
            <mxPoint x="60" y="400" as="sourcePoint" />
            <mxPoint y="460" as="targetPoint" />
          </mxGeometry>
        </mxCell>
        <mxCell id="Lp6GJttOj30es9o93M_a-29" value="Ajouter une matière" style="ellipse;shape=cloud;whiteSpace=wrap;html=1;fillColor=#ffe6cc;strokeColor=#d79b00;" vertex="1" parent="1">
          <mxGeometry x="550" y="240" width="140" height="90" as="geometry" />
        </mxCell>
        <mxCell id="Lp6GJttOj30es9o93M_a-30" value="Afficher ses informations" style="ellipse;shape=cloud;whiteSpace=wrap;html=1;fillColor=#ffe6cc;strokeColor=#d79b00;" vertex="1" parent="1">
          <mxGeometry x="570" y="300" width="120" height="80" as="geometry" />
        </mxCell>
        <mxCell id="Lp6GJttOj30es9o93M_a-31" value="Afficher toutes ses notes" style="ellipse;shape=cloud;whiteSpace=wrap;html=1;fillColor=#ffe6cc;strokeColor=#d79b00;" vertex="1" parent="1">
          <mxGeometry x="580" y="350" width="130" height="90" as="geometry" />
        </mxCell>
        <mxCell id="Lp6GJttOj30es9o93M_a-32" value="Afficher ses matières" style="ellipse;shape=cloud;whiteSpace=wrap;html=1;fillColor=#ffe6cc;strokeColor=#d79b00;" vertex="1" parent="1">
          <mxGeometry x="585" y="410" width="140" height="100" as="geometry" />
        </mxCell>
        <mxCell id="Lp6GJttOj30es9o93M_a-33" value="Afficher son bulletin" style="ellipse;shape=cloud;whiteSpace=wrap;html=1;fillColor=#ffe6cc;strokeColor=#d79b00;" vertex="1" parent="1">
          <mxGeometry x="595" y="475" width="145" height="105" as="geometry" />
        </mxCell>
        <mxCell id="Lp6GJttOj30es9o93M_a-34" value="Calcul moyenne" style="ellipse;shape=cloud;whiteSpace=wrap;html=1;fillColor=#ffe6cc;strokeColor=#d79b00;" vertex="1" parent="1">
          <mxGeometry x="600" y="555" width="120" height="95" as="geometry" />
        </mxCell>
        <mxCell id="Lp6GJttOj30es9o93M_a-35" value="Supprimer notes etudiant" style="ellipse;shape=cloud;whiteSpace=wrap;html=1;fillColor=#ffe6cc;strokeColor=#d79b00;" vertex="1" parent="1">
          <mxGeometry x="605" y="630" width="120" height="80" as="geometry" />
        </mxCell>
        <mxCell id="Lp6GJttOj30es9o93M_a-36" value="Modifier note" style="ellipse;shape=cloud;whiteSpace=wrap;html=1;fillColor=#ffe6cc;strokeColor=#d79b00;" vertex="1" parent="1">
          <mxGeometry x="600" y="690" width="120" height="80" as="geometry" />
        </mxCell>
        <mxCell id="Lp6GJttOj30es9o93M_a-37" value="Retourner menu principal" style="ellipse;shape=cloud;whiteSpace=wrap;html=1;fillColor=#ffe6cc;strokeColor=#d79b00;" vertex="1" parent="1">
          <mxGeometry x="600" y="750" width="120" height="80" as="geometry" />
        </mxCell>
        <mxCell id="Lp6GJttOj30es9o93M_a-38" value="" style="endArrow=classic;html=1;rounded=0;entryX=0.129;entryY=0.641;entryDx=0;entryDy=0;entryPerimeter=0;" edge="1" parent="1" target="Lp6GJttOj30es9o93M_a-29">
          <mxGeometry width="50" height="50" relative="1" as="geometry">
            <mxPoint y="460" as="sourcePoint" />
            <mxPoint x="370" y="510" as="targetPoint" />
          </mxGeometry>
        </mxCell>
        <mxCell id="Lp6GJttOj30es9o93M_a-39" value="" style="endArrow=classic;html=1;rounded=0;entryX=0.07;entryY=0.4;entryDx=0;entryDy=0;entryPerimeter=0;" edge="1" parent="1" target="Lp6GJttOj30es9o93M_a-37">
          <mxGeometry width="50" height="50" relative="1" as="geometry">
            <mxPoint y="460" as="sourcePoint" />
            <mxPoint x="330" y="700" as="targetPoint" />
          </mxGeometry>
        </mxCell>
        <mxCell id="Lp6GJttOj30es9o93M_a-40" value="" style="endArrow=classic;html=1;rounded=0;entryX=0.07;entryY=0.4;entryDx=0;entryDy=0;entryPerimeter=0;" edge="1" parent="1" target="Lp6GJttOj30es9o93M_a-36">
          <mxGeometry width="50" height="50" relative="1" as="geometry">
            <mxPoint y="460" as="sourcePoint" />
            <mxPoint x="370" y="580" as="targetPoint" />
          </mxGeometry>
        </mxCell>
        <mxCell id="Lp6GJttOj30es9o93M_a-41" value="" style="endArrow=classic;html=1;rounded=0;" edge="1" parent="1" target="Lp6GJttOj30es9o93M_a-35">
          <mxGeometry width="50" height="50" relative="1" as="geometry">
            <mxPoint y="460" as="sourcePoint" />
            <mxPoint x="370" y="580" as="targetPoint" />
          </mxGeometry>
        </mxCell>
        <mxCell id="Lp6GJttOj30es9o93M_a-42" value="" style="endArrow=classic;html=1;rounded=0;entryX=0.07;entryY=0.4;entryDx=0;entryDy=0;entryPerimeter=0;" edge="1" parent="1" target="Lp6GJttOj30es9o93M_a-34">
          <mxGeometry width="50" height="50" relative="1" as="geometry">
            <mxPoint y="460" as="sourcePoint" />
            <mxPoint x="370" y="580" as="targetPoint" />
          </mxGeometry>
        </mxCell>
        <mxCell id="Lp6GJttOj30es9o93M_a-43" value="" style="endArrow=classic;html=1;rounded=0;" edge="1" parent="1">
          <mxGeometry width="50" height="50" relative="1" as="geometry">
            <mxPoint y="460" as="sourcePoint" />
            <mxPoint x="610" y="530" as="targetPoint" />
          </mxGeometry>
        </mxCell>
        <mxCell id="Lp6GJttOj30es9o93M_a-44" value="" style="endArrow=classic;html=1;rounded=0;entryX=0.07;entryY=0.4;entryDx=0;entryDy=0;entryPerimeter=0;" edge="1" parent="1" target="Lp6GJttOj30es9o93M_a-32">
          <mxGeometry width="50" height="50" relative="1" as="geometry">
            <mxPoint x="10" y="460" as="sourcePoint" />
            <mxPoint x="370" y="500" as="targetPoint" />
          </mxGeometry>
        </mxCell>
        <mxCell id="Lp6GJttOj30es9o93M_a-45" value="" style="endArrow=classic;html=1;rounded=0;entryX=0.16;entryY=0.55;entryDx=0;entryDy=0;entryPerimeter=0;" edge="1" parent="1" target="Lp6GJttOj30es9o93M_a-31">
          <mxGeometry width="50" height="50" relative="1" as="geometry">
            <mxPoint x="10" y="460" as="sourcePoint" />
            <mxPoint x="390" y="400" as="targetPoint" />
          </mxGeometry>
        </mxCell>
        <mxCell id="Lp6GJttOj30es9o93M_a-46" value="" style="endArrow=classic;html=1;rounded=0;entryX=0.16;entryY=0.55;entryDx=0;entryDy=0;entryPerimeter=0;" edge="1" parent="1" target="Lp6GJttOj30es9o93M_a-30">
          <mxGeometry width="50" height="50" relative="1" as="geometry">
            <mxPoint y="460" as="sourcePoint" />
            <mxPoint x="390" y="400" as="targetPoint" />
          </mxGeometry>
        </mxCell>
        <mxCell id="Lp6GJttOj30es9o93M_a-53" value="Nom" style="ellipse;shape=cloud;whiteSpace=wrap;html=1;fillColor=#ffe6cc;strokeColor=#d79b00;" vertex="1" parent="1">
          <mxGeometry x="-965" y="-60" width="120" height="80" as="geometry" />
        </mxCell>
        <mxCell id="Lp6GJttOj30es9o93M_a-54" value="Prenom" style="ellipse;shape=cloud;whiteSpace=wrap;html=1;fillColor=#ffe6cc;strokeColor=#d79b00;" vertex="1" parent="1">
          <mxGeometry x="-965" width="120" height="80" as="geometry" />
        </mxCell>
        <mxCell id="Lp6GJttOj30es9o93M_a-55" value="Matricule" style="ellipse;shape=cloud;whiteSpace=wrap;html=1;fillColor=#ffe6cc;strokeColor=#d79b00;" vertex="1" parent="1">
          <mxGeometry x="-970" y="50" width="120" height="80" as="geometry" />
        </mxCell>
        <mxCell id="Lp6GJttOj30es9o93M_a-56" value="Date Naisance" style="ellipse;shape=cloud;whiteSpace=wrap;html=1;fillColor=#ffe6cc;strokeColor=#d79b00;" vertex="1" parent="1">
          <mxGeometry x="-965" y="90" width="120" height="80" as="geometry" />
        </mxCell>
        <mxCell id="Lp6GJttOj30es9o93M_a-58" value="Adresse" style="ellipse;shape=cloud;whiteSpace=wrap;html=1;fillColor=#ffe6cc;strokeColor=#d79b00;" vertex="1" parent="1">
          <mxGeometry x="-965" y="185" width="120" height="70" as="geometry" />
        </mxCell>
        <mxCell id="Lp6GJttOj30es9o93M_a-59" value="Email" style="ellipse;shape=cloud;whiteSpace=wrap;html=1;fillColor=#ffe6cc;strokeColor=#d79b00;" vertex="1" parent="1">
          <mxGeometry x="-965" y="230" width="120" height="60" as="geometry" />
        </mxCell>
        <mxCell id="Lp6GJttOj30es9o93M_a-60" value="Niveau Scolaire" style="ellipse;shape=cloud;whiteSpace=wrap;html=1;fillColor=#ffe6cc;strokeColor=#d79b00;" vertex="1" parent="1">
          <mxGeometry x="-965" y="270" width="120" height="80" as="geometry" />
        </mxCell>
        <mxCell id="Lp6GJttOj30es9o93M_a-61" value="Moyenne Generale" style="ellipse;shape=cloud;whiteSpace=wrap;html=1;fillColor=#ffe6cc;strokeColor=#d79b00;" vertex="1" parent="1">
          <mxGeometry x="-975" y="325" width="130" height="80" as="geometry" />
        </mxCell>
        <mxCell id="Lp6GJttOj30es9o93M_a-62" value="Telephone" style="ellipse;shape=cloud;whiteSpace=wrap;html=1;fillColor=#ffe6cc;strokeColor=#d79b00;" vertex="1" parent="1">
          <mxGeometry x="-970" y="380" width="120" height="80" as="geometry" />
        </mxCell>
        <mxCell id="Lp6GJttOj30es9o93M_a-63" value="" style="endArrow=classic;html=1;rounded=0;entryX=0.875;entryY=0.5;entryDx=0;entryDy=0;entryPerimeter=0;exitX=0;exitY=0;exitDx=0;exitDy=0;" edge="1" parent="1" source="Lp6GJttOj30es9o93M_a-4" target="Lp6GJttOj30es9o93M_a-53">
          <mxGeometry width="50" height="50" relative="1" as="geometry">
            <mxPoint x="-800" y="190" as="sourcePoint" />
            <mxPoint x="-750" y="140" as="targetPoint" />
          </mxGeometry>
        </mxCell>
        <mxCell id="Lp6GJttOj30es9o93M_a-64" value="" style="endArrow=classic;html=1;rounded=0;entryX=0.906;entryY=0.779;entryDx=0;entryDy=0;entryPerimeter=0;" edge="1" parent="1" target="Lp6GJttOj30es9o93M_a-54">
          <mxGeometry width="50" height="50" relative="1" as="geometry">
            <mxPoint x="-450" y="290" as="sourcePoint" />
            <mxPoint x="-750" y="140" as="targetPoint" />
          </mxGeometry>
        </mxCell>
        <mxCell id="Lp6GJttOj30es9o93M_a-65" value="" style="endArrow=classic;html=1;rounded=0;exitX=0.038;exitY=0.033;exitDx=0;exitDy=0;exitPerimeter=0;" edge="1" parent="1" source="Lp6GJttOj30es9o93M_a-4">
          <mxGeometry width="50" height="50" relative="1" as="geometry">
            <mxPoint x="-800" y="190" as="sourcePoint" />
            <mxPoint x="-860" y="100" as="targetPoint" />
          </mxGeometry>
        </mxCell>
        <mxCell id="Lp6GJttOj30es9o93M_a-67" value="" style="endArrow=classic;html=1;rounded=0;entryX=0.96;entryY=0.7;entryDx=0;entryDy=0;entryPerimeter=0;exitX=0;exitY=0.5;exitDx=0;exitDy=0;" edge="1" parent="1" source="Lp6GJttOj30es9o93M_a-4" target="Lp6GJttOj30es9o93M_a-56">
          <mxGeometry width="50" height="50" relative="1" as="geometry">
            <mxPoint x="-460" y="300" as="sourcePoint" />
            <mxPoint x="-750" y="140" as="targetPoint" />
          </mxGeometry>
        </mxCell>
        <mxCell id="Lp6GJttOj30es9o93M_a-68" value="" style="endArrow=classic;html=1;rounded=0;exitX=0;exitY=1;exitDx=0;exitDy=0;entryX=0.96;entryY=0.7;entryDx=0;entryDy=0;entryPerimeter=0;" edge="1" parent="1" source="Lp6GJttOj30es9o93M_a-4" target="Lp6GJttOj30es9o93M_a-58">
          <mxGeometry width="50" height="50" relative="1" as="geometry">
            <mxPoint x="-800" y="190" as="sourcePoint" />
            <mxPoint x="-750" y="140" as="targetPoint" />
          </mxGeometry>
        </mxCell>
        <mxCell id="Lp6GJttOj30es9o93M_a-69" value="" style="endArrow=classic;html=1;rounded=0;exitX=0;exitY=0.5;exitDx=0;exitDy=0;entryX=0.933;entryY=0.583;entryDx=0;entryDy=0;entryPerimeter=0;" edge="1" parent="1" source="Lp6GJttOj30es9o93M_a-4" target="Lp6GJttOj30es9o93M_a-59">
          <mxGeometry width="50" height="50" relative="1" as="geometry">
            <mxPoint x="-800" y="190" as="sourcePoint" />
            <mxPoint x="-750" y="140" as="targetPoint" />
          </mxGeometry>
        </mxCell>
        <mxCell id="Lp6GJttOj30es9o93M_a-70" value="" style="endArrow=classic;html=1;rounded=0;exitX=0;exitY=0.75;exitDx=0;exitDy=0;" edge="1" parent="1" source="Lp6GJttOj30es9o93M_a-4" target="Lp6GJttOj30es9o93M_a-60">
          <mxGeometry width="50" height="50" relative="1" as="geometry">
            <mxPoint x="-800" y="190" as="sourcePoint" />
            <mxPoint x="-1080" y="280" as="targetPoint" />
          </mxGeometry>
        </mxCell>
        <mxCell id="Lp6GJttOj30es9o93M_a-71" value="" style="endArrow=classic;html=1;rounded=0;exitX=0;exitY=0.5;exitDx=0;exitDy=0;entryX=0.931;entryY=0.442;entryDx=0;entryDy=0;entryPerimeter=0;" edge="1" parent="1" source="Lp6GJttOj30es9o93M_a-4" target="Lp6GJttOj30es9o93M_a-61">
          <mxGeometry width="50" height="50" relative="1" as="geometry">
            <mxPoint x="-800" y="190" as="sourcePoint" />
            <mxPoint x="-750" y="140" as="targetPoint" />
          </mxGeometry>
        </mxCell>
        <mxCell id="Lp6GJttOj30es9o93M_a-72" value="" style="endArrow=classic;html=1;rounded=0;exitX=0;exitY=0.5;exitDx=0;exitDy=0;entryX=0.96;entryY=0.7;entryDx=0;entryDy=0;entryPerimeter=0;" edge="1" parent="1" source="Lp6GJttOj30es9o93M_a-4" target="Lp6GJttOj30es9o93M_a-62">
          <mxGeometry width="50" height="50" relative="1" as="geometry">
            <mxPoint x="-800" y="190" as="sourcePoint" />
            <mxPoint x="-750" y="140" as="targetPoint" />
          </mxGeometry>
        </mxCell>
        <mxCell id="Lp6GJttOj30es9o93M_a-73" value="" style="endArrow=classic;html=1;rounded=0;exitX=1;exitY=0.5;exitDx=0;exitDy=0;entryX=0.16;entryY=0.55;entryDx=0;entryDy=0;entryPerimeter=0;" edge="1" parent="1" source="Lp6GJttOj30es9o93M_a-19" target="Lp6GJttOj30es9o93M_a-74">
          <mxGeometry width="50" height="50" relative="1" as="geometry">
            <mxPoint x="-275" y="380" as="sourcePoint" />
            <mxPoint x="50" y="200" as="targetPoint" />
          </mxGeometry>
        </mxCell>
        <mxCell id="Lp6GJttOj30es9o93M_a-74" value="La matricule de l&#39;étudiant&amp;nbsp; EXEMPLE P2244" style="ellipse;shape=cloud;whiteSpace=wrap;html=1;fillColor=#ffe6cc;strokeColor=#d79b00;" vertex="1" parent="1">
          <mxGeometry x="435" y="-20" width="160" height="120" as="geometry" />
        </mxCell>
        <mxCell id="Lp6GJttOj30es9o93M_a-75" value="Nom" style="ellipse;shape=cloud;whiteSpace=wrap;html=1;fillColor=#ffe6cc;strokeColor=#d79b00;" vertex="1" parent="1">
          <mxGeometry x="455" y="50" width="140" height="90" as="geometry" />
        </mxCell>
        <mxCell id="Lp6GJttOj30es9o93M_a-76" value="Prenom" style="ellipse;shape=cloud;whiteSpace=wrap;html=1;fillColor=#ffe6cc;strokeColor=#d79b00;" vertex="1" parent="1">
          <mxGeometry x="445" y="105" width="140" height="105" as="geometry" />
        </mxCell>
        <mxCell id="Lp6GJttOj30es9o93M_a-78" value="" style="endArrow=classic;html=1;rounded=0;entryX=0.11;entryY=0.698;entryDx=0;entryDy=0;entryPerimeter=0;exitX=1;exitY=0.5;exitDx=0;exitDy=0;" edge="1" parent="1" source="Lp6GJttOj30es9o93M_a-19" target="Lp6GJttOj30es9o93M_a-76">
          <mxGeometry width="50" height="50" relative="1" as="geometry">
            <mxPoint x="-270" y="380" as="sourcePoint" />
            <mxPoint x="-80" y="240" as="targetPoint" />
          </mxGeometry>
        </mxCell>
        <mxCell id="Lp6GJttOj30es9o93M_a-79" value="" style="endArrow=classic;html=1;rounded=0;exitX=1;exitY=0.5;exitDx=0;exitDy=0;entryX=0.124;entryY=0.552;entryDx=0;entryDy=0;entryPerimeter=0;" edge="1" parent="1" source="Lp6GJttOj30es9o93M_a-19" target="Lp6GJttOj30es9o93M_a-75">
          <mxGeometry width="50" height="50" relative="1" as="geometry">
            <mxPoint x="-270" y="380" as="sourcePoint" />
            <mxPoint x="-80" y="240" as="targetPoint" />
          </mxGeometry>
        </mxCell>
        <mxCell id="Lp6GJttOj30es9o93M_a-82" value="Nom matière" style="ellipse;whiteSpace=wrap;html=1;fillColor=#ffe6cc;strokeColor=#d79b00;" vertex="1" parent="1">
          <mxGeometry x="1090" y="-175" width="120" height="45" as="geometry" />
        </mxCell>
        <mxCell id="Lp6GJttOj30es9o93M_a-83" value="Coefficient" style="ellipse;whiteSpace=wrap;html=1;fillColor=#ffe6cc;strokeColor=#d79b00;" vertex="1" parent="1">
          <mxGeometry x="1095" y="-130" width="120" height="50" as="geometry" />
        </mxCell>
        <mxCell id="Lp6GJttOj30es9o93M_a-84" value="" style="endArrow=classic;html=1;rounded=0;entryX=0.054;entryY=0.806;entryDx=0;entryDy=0;exitX=0.88;exitY=0.25;exitDx=0;exitDy=0;exitPerimeter=0;entryPerimeter=0;" edge="1" parent="1" source="Lp6GJttOj30es9o93M_a-29" target="Lp6GJttOj30es9o93M_a-82">
          <mxGeometry width="50" height="50" relative="1" as="geometry">
            <mxPoint x="790" y="460" as="sourcePoint" />
            <mxPoint x="840" y="410" as="targetPoint" />
          </mxGeometry>
        </mxCell>
        <mxCell id="Lp6GJttOj30es9o93M_a-85" value="" style="endArrow=classic;html=1;rounded=0;entryX=0.022;entryY=0.66;entryDx=0;entryDy=0;entryPerimeter=0;exitX=0.88;exitY=0.25;exitDx=0;exitDy=0;exitPerimeter=0;" edge="1" parent="1" source="Lp6GJttOj30es9o93M_a-29" target="Lp6GJttOj30es9o93M_a-83">
          <mxGeometry width="50" height="50" relative="1" as="geometry">
            <mxPoint x="690" y="270" as="sourcePoint" />
            <mxPoint x="840" y="410" as="targetPoint" />
          </mxGeometry>
        </mxCell>
        <mxCell id="Lp6GJttOj30es9o93M_a-86" value="nom matière" style="ellipse;whiteSpace=wrap;html=1;fillColor=#ffe6cc;strokeColor=#d79b00;" vertex="1" parent="1">
          <mxGeometry x="1405" y="815" width="130" height="45" as="geometry" />
        </mxCell>
        <mxCell id="Lp6GJttOj30es9o93M_a-87" value="numero ligne de note&amp;nbsp;" style="ellipse;whiteSpace=wrap;html=1;fillColor=#ffe6cc;strokeColor=#d79b00;" vertex="1" parent="1">
          <mxGeometry x="1410" y="860" width="120" height="50" as="geometry" />
        </mxCell>
        <mxCell id="Lp6GJttOj30es9o93M_a-88" value="" style="endArrow=classic;html=1;rounded=0;entryX=0;entryY=0.5;entryDx=0;entryDy=0;" edge="1" parent="1" target="Lp6GJttOj30es9o93M_a-86">
          <mxGeometry width="50" height="50" relative="1" as="geometry">
            <mxPoint x="715" y="670" as="sourcePoint" />
            <mxPoint x="820" y="530" as="targetPoint" />
          </mxGeometry>
        </mxCell>
        <mxCell id="Lp6GJttOj30es9o93M_a-89" value="" style="endArrow=classic;html=1;rounded=0;entryX=0;entryY=0.5;entryDx=0;entryDy=0;exitX=0.875;exitY=0.5;exitDx=0;exitDy=0;exitPerimeter=0;" edge="1" parent="1" source="Lp6GJttOj30es9o93M_a-35" target="Lp6GJttOj30es9o93M_a-87">
          <mxGeometry width="50" height="50" relative="1" as="geometry">
            <mxPoint x="720" y="670" as="sourcePoint" />
            <mxPoint x="820" y="530" as="targetPoint" />
          </mxGeometry>
        </mxCell>
        <mxCell id="Lp6GJttOj30es9o93M_a-90" value="Date de naissance" style="ellipse;whiteSpace=wrap;html=1;fillColor=#ffe6cc;strokeColor=#d79b00;" vertex="1" parent="1">
          <mxGeometry x="1425" y="380" width="120" height="40" as="geometry" />
        </mxCell>
        <mxCell id="Lp6GJttOj30es9o93M_a-91" value="Genre" style="ellipse;whiteSpace=wrap;html=1;fillColor=#ffe6cc;strokeColor=#d79b00;" vertex="1" parent="1">
          <mxGeometry x="1430" y="415" width="120" height="35" as="geometry" />
        </mxCell>
        <mxCell id="Lp6GJttOj30es9o93M_a-92" value="Numero" style="ellipse;whiteSpace=wrap;html=1;fillColor=#ffe6cc;strokeColor=#d79b00;" vertex="1" parent="1">
          <mxGeometry x="1430" y="450" width="120" height="40" as="geometry" />
        </mxCell>
        <mxCell id="Lp6GJttOj30es9o93M_a-93" value="Email" style="ellipse;whiteSpace=wrap;html=1;fillColor=#ffe6cc;strokeColor=#d79b00;" vertex="1" parent="1">
          <mxGeometry x="1430" y="480" width="120" height="50" as="geometry" />
        </mxCell>
        <mxCell id="Lp6GJttOj30es9o93M_a-94" value="Prenom" style="ellipse;whiteSpace=wrap;html=1;fillColor=#ffe6cc;strokeColor=#d79b00;" vertex="1" parent="1">
          <mxGeometry x="1430" y="340" width="110" height="50" as="geometry" />
        </mxCell>
        <mxCell id="Lp6GJttOj30es9o93M_a-95" value="Nom" style="ellipse;whiteSpace=wrap;html=1;fillColor=#ffe6cc;strokeColor=#d79b00;" vertex="1" parent="1">
          <mxGeometry x="1430" y="305" width="120" height="45" as="geometry" />
        </mxCell>
        <mxCell id="Lp6GJttOj30es9o93M_a-96" value="Classe" style="ellipse;whiteSpace=wrap;html=1;fillColor=#ffe6cc;strokeColor=#d79b00;" vertex="1" parent="1">
          <mxGeometry x="1430" y="515" width="120" height="40" as="geometry" />
        </mxCell>
        <mxCell id="Lp6GJttOj30es9o93M_a-98" value="Matière" style="ellipse;whiteSpace=wrap;html=1;fillColor=#ffe6cc;strokeColor=#d79b00;" vertex="1" parent="1">
          <mxGeometry x="1425" y="545" width="130" height="45" as="geometry" />
        </mxCell>
        <mxCell id="Lp6GJttOj30es9o93M_a-99" value="Note" style="ellipse;whiteSpace=wrap;html=1;fillColor=#ffe6cc;strokeColor=#d79b00;" vertex="1" parent="1">
          <mxGeometry x="1430" y="580" width="130" height="40" as="geometry" />
        </mxCell>
        <mxCell id="Lp6GJttOj30es9o93M_a-100" value="coefficient" style="ellipse;whiteSpace=wrap;html=1;fillColor=#ffe6cc;strokeColor=#d79b00;" vertex="1" parent="1">
          <mxGeometry x="1430" y="610" width="130" height="40" as="geometry" />
        </mxCell>
        <mxCell id="Lp6GJttOj30es9o93M_a-101" value="moyenne" style="ellipse;whiteSpace=wrap;html=1;fillColor=#ffe6cc;strokeColor=#d79b00;" vertex="1" parent="1">
          <mxGeometry x="1430" y="645" width="120" height="45" as="geometry" />
        </mxCell>
        <mxCell id="Lp6GJttOj30es9o93M_a-102" value="Moyenne annuelle" style="ellipse;whiteSpace=wrap;html=1;fillColor=#ffe6cc;strokeColor=#d79b00;" vertex="1" parent="1">
          <mxGeometry x="1430" y="685" width="110" height="35" as="geometry" />
        </mxCell>
        <mxCell id="Lp6GJttOj30es9o93M_a-103" value="" style="endArrow=classic;html=1;rounded=0;entryX=0;entryY=0.5;entryDx=0;entryDy=0;" edge="1" parent="1" target="Lp6GJttOj30es9o93M_a-95">
          <mxGeometry width="50" height="50" relative="1" as="geometry">
            <mxPoint x="730" y="500" as="sourcePoint" />
            <mxPoint x="1170" y="470" as="targetPoint" />
          </mxGeometry>
        </mxCell>
        <mxCell id="Lp6GJttOj30es9o93M_a-104" value="" style="endArrow=classic;html=1;rounded=0;entryX=0.017;entryY=0.367;entryDx=0;entryDy=0;entryPerimeter=0;" edge="1" parent="1" target="Lp6GJttOj30es9o93M_a-94">
          <mxGeometry width="50" height="50" relative="1" as="geometry">
            <mxPoint x="720" y="500" as="sourcePoint" />
            <mxPoint x="1170" y="470" as="targetPoint" />
          </mxGeometry>
        </mxCell>
        <mxCell id="Lp6GJttOj30es9o93M_a-105" value="" style="endArrow=classic;html=1;rounded=0;entryX=0;entryY=0.5;entryDx=0;entryDy=0;exitX=0.88;exitY=0.25;exitDx=0;exitDy=0;exitPerimeter=0;" edge="1" parent="1" source="Lp6GJttOj30es9o93M_a-33" target="Lp6GJttOj30es9o93M_a-90">
          <mxGeometry width="50" height="50" relative="1" as="geometry">
            <mxPoint x="1120" y="520" as="sourcePoint" />
            <mxPoint x="1170" y="470" as="targetPoint" />
          </mxGeometry>
        </mxCell>
        <mxCell id="Lp6GJttOj30es9o93M_a-106" value="" style="endArrow=classic;html=1;rounded=0;entryX=0.033;entryY=0.781;entryDx=0;entryDy=0;entryPerimeter=0;" edge="1" parent="1" target="Lp6GJttOj30es9o93M_a-91">
          <mxGeometry width="50" height="50" relative="1" as="geometry">
            <mxPoint x="730" y="520" as="sourcePoint" />
            <mxPoint x="1170" y="470" as="targetPoint" />
          </mxGeometry>
        </mxCell>
        <mxCell id="Lp6GJttOj30es9o93M_a-107" value="" style="endArrow=classic;html=1;rounded=0;entryX=0;entryY=0.5;entryDx=0;entryDy=0;" edge="1" parent="1" target="Lp6GJttOj30es9o93M_a-92">
          <mxGeometry width="50" height="50" relative="1" as="geometry">
            <mxPoint x="730" y="520" as="sourcePoint" />
            <mxPoint x="1360" y="393" as="targetPoint" />
          </mxGeometry>
        </mxCell>
        <mxCell id="Lp6GJttOj30es9o93M_a-108" value="" style="endArrow=classic;html=1;rounded=0;entryX=0;entryY=0.5;entryDx=0;entryDy=0;exitX=0.875;exitY=0.5;exitDx=0;exitDy=0;exitPerimeter=0;" edge="1" parent="1" source="Lp6GJttOj30es9o93M_a-33" target="Lp6GJttOj30es9o93M_a-93">
          <mxGeometry width="50" height="50" relative="1" as="geometry">
            <mxPoint x="710" y="590" as="sourcePoint" />
            <mxPoint x="1170" y="570" as="targetPoint" />
          </mxGeometry>
        </mxCell>
        <mxCell id="Lp6GJttOj30es9o93M_a-109" value="" style="endArrow=classic;html=1;rounded=0;exitX=0.931;exitY=0.524;exitDx=0;exitDy=0;exitPerimeter=0;" edge="1" parent="1" source="Lp6GJttOj30es9o93M_a-33" target="Lp6GJttOj30es9o93M_a-102">
          <mxGeometry width="50" height="50" relative="1" as="geometry">
            <mxPoint x="1120" y="620" as="sourcePoint" />
            <mxPoint x="1170" y="570" as="targetPoint" />
          </mxGeometry>
        </mxCell>
        <mxCell id="Lp6GJttOj30es9o93M_a-110" value="" style="endArrow=classic;html=1;rounded=0;entryX=0;entryY=0;entryDx=0;entryDy=0;" edge="1" parent="1" target="Lp6GJttOj30es9o93M_a-101">
          <mxGeometry width="50" height="50" relative="1" as="geometry">
            <mxPoint x="720" y="520" as="sourcePoint" />
            <mxPoint x="1170" y="570" as="targetPoint" />
          </mxGeometry>
        </mxCell>
        <mxCell id="Lp6GJttOj30es9o93M_a-111" value="" style="endArrow=classic;html=1;rounded=0;entryX=0;entryY=0.5;entryDx=0;entryDy=0;exitX=0.875;exitY=0.5;exitDx=0;exitDy=0;exitPerimeter=0;" edge="1" parent="1" source="Lp6GJttOj30es9o93M_a-33" target="Lp6GJttOj30es9o93M_a-100">
          <mxGeometry width="50" height="50" relative="1" as="geometry">
            <mxPoint x="730" y="530" as="sourcePoint" />
            <mxPoint x="1170" y="570" as="targetPoint" />
          </mxGeometry>
        </mxCell>
        <mxCell id="Lp6GJttOj30es9o93M_a-112" value="" style="endArrow=classic;html=1;rounded=0;" edge="1" parent="1" target="Lp6GJttOj30es9o93M_a-99">
          <mxGeometry width="50" height="50" relative="1" as="geometry">
            <mxPoint x="720" y="520" as="sourcePoint" />
            <mxPoint x="1170" y="570" as="targetPoint" />
          </mxGeometry>
        </mxCell>
        <mxCell id="Lp6GJttOj30es9o93M_a-113" value="" style="endArrow=classic;html=1;rounded=0;entryX=0;entryY=0.5;entryDx=0;entryDy=0;" edge="1" parent="1" target="Lp6GJttOj30es9o93M_a-98">
          <mxGeometry width="50" height="50" relative="1" as="geometry">
            <mxPoint x="730" y="520" as="sourcePoint" />
            <mxPoint x="1170" y="570" as="targetPoint" />
          </mxGeometry>
        </mxCell>
        <mxCell id="Lp6GJttOj30es9o93M_a-114" value="" style="endArrow=classic;html=1;rounded=0;entryX=0;entryY=0.5;entryDx=0;entryDy=0;exitX=0.885;exitY=0.324;exitDx=0;exitDy=0;exitPerimeter=0;" edge="1" parent="1" source="Lp6GJttOj30es9o93M_a-33" target="Lp6GJttOj30es9o93M_a-96">
          <mxGeometry width="50" height="50" relative="1" as="geometry">
            <mxPoint x="710" y="590" as="sourcePoint" />
            <mxPoint x="1170" y="570" as="targetPoint" />
          </mxGeometry>
        </mxCell>
        <mxCell id="Lp6GJttOj30es9o93M_a-115" value="MoyenneGenerale" style="ellipse;whiteSpace=wrap;html=1;fillColor=#ffe6cc;strokeColor=#d79b00;" vertex="1" parent="1">
          <mxGeometry x="1410" y="730" width="140" height="60" as="geometry" />
        </mxCell>
        <mxCell id="Lp6GJttOj30es9o93M_a-116" value="" style="endArrow=classic;html=1;rounded=0;exitX=0.875;exitY=0.5;exitDx=0;exitDy=0;exitPerimeter=0;entryX=0;entryY=0.5;entryDx=0;entryDy=0;" edge="1" parent="1" source="Lp6GJttOj30es9o93M_a-34" target="Lp6GJttOj30es9o93M_a-115">
          <mxGeometry width="50" height="50" relative="1" as="geometry">
            <mxPoint x="910" y="560" as="sourcePoint" />
            <mxPoint x="960" y="510" as="targetPoint" />
          </mxGeometry>
        </mxCell>
        <mxCell id="Lp6GJttOj30es9o93M_a-117" value="Nom matière" style="ellipse;shape=cloud;whiteSpace=wrap;html=1;fillColor=#ffe6cc;strokeColor=#d79b00;" vertex="1" parent="1">
          <mxGeometry x="1343.5" y="930" width="170" height="95" as="geometry" />
        </mxCell>
        <mxCell id="Lp6GJttOj30es9o93M_a-118" value="NumeroLigneDeNote" style="ellipse;shape=cloud;whiteSpace=wrap;html=1;fillColor=#ffe6cc;strokeColor=#d79b00;" vertex="1" parent="1">
          <mxGeometry x="1330" y="1000" width="210" height="80" as="geometry" />
        </mxCell>
        <mxCell id="Lp6GJttOj30es9o93M_a-119" value="" style="endArrow=classic;html=1;rounded=0;exitX=0.96;exitY=0.7;exitDx=0;exitDy=0;exitPerimeter=0;entryX=0.16;entryY=0.55;entryDx=0;entryDy=0;entryPerimeter=0;" edge="1" parent="1" source="Lp6GJttOj30es9o93M_a-36" target="Lp6GJttOj30es9o93M_a-117">
          <mxGeometry width="50" height="50" relative="1" as="geometry">
            <mxPoint x="900" y="740" as="sourcePoint" />
            <mxPoint x="950" y="690" as="targetPoint" />
          </mxGeometry>
        </mxCell>
        <mxCell id="Lp6GJttOj30es9o93M_a-120" value="" style="endArrow=classic;html=1;rounded=0;exitX=0.96;exitY=0.7;exitDx=0;exitDy=0;exitPerimeter=0;entryX=0.102;entryY=0.546;entryDx=0;entryDy=0;entryPerimeter=0;" edge="1" parent="1" source="Lp6GJttOj30es9o93M_a-36" target="Lp6GJttOj30es9o93M_a-118">
          <mxGeometry width="50" height="50" relative="1" as="geometry">
            <mxPoint x="900" y="740" as="sourcePoint" />
            <mxPoint x="950" y="690" as="targetPoint" />
          </mxGeometry>
        </mxCell>
        <mxCell id="Lp6GJttOj30es9o93M_a-121" value="Prenom" style="ellipse;whiteSpace=wrap;html=1;fillColor=#ffe6cc;strokeColor=#d79b00;" vertex="1" parent="1">
          <mxGeometry x="1100" width="130" height="40" as="geometry" />
        </mxCell>
        <mxCell id="Lp6GJttOj30es9o93M_a-122" value="Matricule" style="ellipse;whiteSpace=wrap;html=1;fillColor=#ffe6cc;strokeColor=#d79b00;" vertex="1" parent="1">
          <mxGeometry x="1103" y="30" width="117" height="40" as="geometry" />
        </mxCell>
        <mxCell id="Lp6GJttOj30es9o93M_a-123" value="Date Naissance" style="ellipse;whiteSpace=wrap;html=1;fillColor=#ffe6cc;strokeColor=#d79b00;" vertex="1" parent="1">
          <mxGeometry x="1103" y="60" width="120" height="40" as="geometry" />
        </mxCell>
        <mxCell id="Lp6GJttOj30es9o93M_a-125" value="Genre" style="ellipse;whiteSpace=wrap;html=1;fillColor=#ffe6cc;strokeColor=#d79b00;" vertex="1" parent="1">
          <mxGeometry x="1100" y="90" width="125" height="30" as="geometry" />
        </mxCell>
        <mxCell id="Lp6GJttOj30es9o93M_a-126" value="Adresse" style="ellipse;whiteSpace=wrap;html=1;fillColor=#ffe6cc;strokeColor=#d79b00;" vertex="1" parent="1">
          <mxGeometry x="1098" y="120" width="130" height="30" as="geometry" />
        </mxCell>
        <mxCell id="Lp6GJttOj30es9o93M_a-127" value="Email" style="ellipse;whiteSpace=wrap;html=1;fillColor=#ffe6cc;strokeColor=#d79b00;" vertex="1" parent="1">
          <mxGeometry x="1104.5" y="150" width="120.5" height="30" as="geometry" />
        </mxCell>
        <mxCell id="Lp6GJttOj30es9o93M_a-128" value="Niveau Scolaire" style="ellipse;whiteSpace=wrap;html=1;fillColor=#ffe6cc;strokeColor=#d79b00;" vertex="1" parent="1">
          <mxGeometry x="1110.5" y="180" width="120" height="40" as="geometry" />
        </mxCell>
        <mxCell id="Lp6GJttOj30es9o93M_a-129" value="Nom" style="ellipse;whiteSpace=wrap;html=1;fillColor=#ffe6cc;strokeColor=#d79b00;" vertex="1" parent="1">
          <mxGeometry x="1095" y="-30" width="135" height="40" as="geometry" />
        </mxCell>
        <mxCell id="Lp6GJttOj30es9o93M_a-131" value="Moyenne" style="ellipse;whiteSpace=wrap;html=1;fillColor=#ffe6cc;strokeColor=#d79b00;" vertex="1" parent="1">
          <mxGeometry x="1115" y="210" width="120" height="45" as="geometry" />
        </mxCell>
        <mxCell id="Lp6GJttOj30es9o93M_a-132" value="Telephone" style="ellipse;whiteSpace=wrap;html=1;fillColor=#ffe6cc;strokeColor=#d79b00;" vertex="1" parent="1">
          <mxGeometry x="1110" y="240" width="120" height="40" as="geometry" />
        </mxCell>
        <mxCell id="Lp6GJttOj30es9o93M_a-133" value="" style="endArrow=classic;html=1;rounded=0;entryX=0;entryY=0.5;entryDx=0;entryDy=0;exitX=0.875;exitY=0.5;exitDx=0;exitDy=0;exitPerimeter=0;" edge="1" parent="1" source="Lp6GJttOj30es9o93M_a-30" target="Lp6GJttOj30es9o93M_a-129">
          <mxGeometry width="50" height="50" relative="1" as="geometry">
            <mxPoint x="680" y="320" as="sourcePoint" />
            <mxPoint x="1030" y="210" as="targetPoint" />
          </mxGeometry>
        </mxCell>
        <mxCell id="Lp6GJttOj30es9o93M_a-134" value="" style="endArrow=classic;html=1;rounded=0;entryX=0;entryY=0.5;entryDx=0;entryDy=0;" edge="1" parent="1" target="Lp6GJttOj30es9o93M_a-121">
          <mxGeometry width="50" height="50" relative="1" as="geometry">
            <mxPoint x="680" y="340" as="sourcePoint" />
            <mxPoint x="1030" y="90" as="targetPoint" />
          </mxGeometry>
        </mxCell>
        <mxCell id="Lp6GJttOj30es9o93M_a-135" value="" style="endArrow=classic;html=1;rounded=0;exitX=0.875;exitY=0.5;exitDx=0;exitDy=0;exitPerimeter=0;entryX=0;entryY=0.5;entryDx=0;entryDy=0;" edge="1" parent="1" source="Lp6GJttOj30es9o93M_a-30" target="Lp6GJttOj30es9o93M_a-122">
          <mxGeometry width="50" height="50" relative="1" as="geometry">
            <mxPoint x="980" y="140" as="sourcePoint" />
            <mxPoint x="1030" y="90" as="targetPoint" />
          </mxGeometry>
        </mxCell>
        <mxCell id="Lp6GJttOj30es9o93M_a-136" value="" style="endArrow=classic;html=1;rounded=0;exitX=0.933;exitY=0.388;exitDx=0;exitDy=0;exitPerimeter=0;" edge="1" parent="1" source="Lp6GJttOj30es9o93M_a-30">
          <mxGeometry width="50" height="50" relative="1" as="geometry">
            <mxPoint x="980" y="140" as="sourcePoint" />
            <mxPoint x="1100" y="80" as="targetPoint" />
          </mxGeometry>
        </mxCell>
        <mxCell id="Lp6GJttOj30es9o93M_a-137" value="" style="endArrow=classic;html=1;rounded=0;entryX=0.075;entryY=0.7;entryDx=0;entryDy=0;entryPerimeter=0;" edge="1" parent="1" target="Lp6GJttOj30es9o93M_a-125">
          <mxGeometry width="50" height="50" relative="1" as="geometry">
            <mxPoint x="680" y="340" as="sourcePoint" />
            <mxPoint x="1030" y="90" as="targetPoint" />
          </mxGeometry>
        </mxCell>
        <mxCell id="Lp6GJttOj30es9o93M_a-138" value="" style="endArrow=classic;html=1;rounded=0;exitX=0.911;exitY=0.338;exitDx=0;exitDy=0;exitPerimeter=0;entryX=0;entryY=0.5;entryDx=0;entryDy=0;" edge="1" parent="1" source="Lp6GJttOj30es9o93M_a-30" target="Lp6GJttOj30es9o93M_a-126">
          <mxGeometry width="50" height="50" relative="1" as="geometry">
            <mxPoint x="980" y="140" as="sourcePoint" />
            <mxPoint x="1030" y="90" as="targetPoint" />
          </mxGeometry>
        </mxCell>
        <mxCell id="Lp6GJttOj30es9o93M_a-139" value="" style="endArrow=classic;html=1;rounded=0;entryX=0;entryY=0.5;entryDx=0;entryDy=0;exitX=0.908;exitY=0.407;exitDx=0;exitDy=0;exitPerimeter=0;" edge="1" parent="1" source="Lp6GJttOj30es9o93M_a-30" target="Lp6GJttOj30es9o93M_a-127">
          <mxGeometry width="50" height="50" relative="1" as="geometry">
            <mxPoint x="680" y="320" as="sourcePoint" />
            <mxPoint x="1030" y="90" as="targetPoint" />
          </mxGeometry>
        </mxCell>
        <mxCell id="Lp6GJttOj30es9o93M_a-140" value="" style="endArrow=classic;html=1;rounded=0;exitX=0.889;exitY=0.421;exitDx=0;exitDy=0;exitPerimeter=0;" edge="1" parent="1" source="Lp6GJttOj30es9o93M_a-30">
          <mxGeometry width="50" height="50" relative="1" as="geometry">
            <mxPoint x="980" y="140" as="sourcePoint" />
            <mxPoint x="1110" y="200" as="targetPoint" />
          </mxGeometry>
        </mxCell>
        <mxCell id="Lp6GJttOj30es9o93M_a-141" value="" style="endArrow=classic;html=1;rounded=0;exitX=0.911;exitY=0.363;exitDx=0;exitDy=0;exitPerimeter=0;entryX=0;entryY=0.5;entryDx=0;entryDy=0;" edge="1" parent="1" source="Lp6GJttOj30es9o93M_a-30" target="Lp6GJttOj30es9o93M_a-131">
          <mxGeometry width="50" height="50" relative="1" as="geometry">
            <mxPoint x="980" y="140" as="sourcePoint" />
            <mxPoint x="1030" y="90" as="targetPoint" />
          </mxGeometry>
        </mxCell>
        <mxCell id="Lp6GJttOj30es9o93M_a-142" value="" style="endArrow=classic;html=1;rounded=0;exitX=0.939;exitY=0.571;exitDx=0;exitDy=0;exitPerimeter=0;entryX=0;entryY=0.5;entryDx=0;entryDy=0;" edge="1" parent="1" source="Lp6GJttOj30es9o93M_a-30" target="Lp6GJttOj30es9o93M_a-132">
          <mxGeometry width="50" height="50" relative="1" as="geometry">
            <mxPoint x="980" y="140" as="sourcePoint" />
            <mxPoint x="1030" y="90" as="targetPoint" />
          </mxGeometry>
        </mxCell>
        <mxCell id="Lp6GJttOj30es9o93M_a-143" value="Notes de l&#39;étudiant sont :&lt;div&gt;-&lt;/div&gt;&lt;div&gt;-&lt;/div&gt;&lt;div&gt;-&lt;/div&gt;&lt;div&gt;...&lt;/div&gt;" style="ellipse;whiteSpace=wrap;html=1;fillColor=#ffe6cc;strokeColor=#d79b00;" vertex="1" parent="1">
          <mxGeometry x="1490" y="130" width="227" height="100" as="geometry" />
        </mxCell>
        <mxCell id="Lp6GJttOj30es9o93M_a-145" value="" style="endArrow=classic;html=1;rounded=0;exitX=0.875;exitY=0.5;exitDx=0;exitDy=0;exitPerimeter=0;" edge="1" parent="1" source="Lp6GJttOj30es9o93M_a-31" target="Lp6GJttOj30es9o93M_a-143">
          <mxGeometry width="50" height="50" relative="1" as="geometry">
            <mxPoint x="980" y="500" as="sourcePoint" />
            <mxPoint x="1030" y="450" as="targetPoint" />
            <Array as="points">
              <mxPoint x="820" y="380" />
            </Array>
          </mxGeometry>
        </mxCell>
        <mxCell id="Lp6GJttOj30es9o93M_a-147" value="" style="endArrow=classic;html=1;rounded=0;exitX=0.875;exitY=0.5;exitDx=0;exitDy=0;exitPerimeter=0;entryX=0.016;entryY=0.583;entryDx=0;entryDy=0;entryPerimeter=0;" edge="1" parent="1" source="Lp6GJttOj30es9o93M_a-32" target="Lp6GJttOj30es9o93M_a-148">
          <mxGeometry width="50" height="50" relative="1" as="geometry">
            <mxPoint x="960" y="440" as="sourcePoint" />
            <mxPoint x="1510" y="280" as="targetPoint" />
          </mxGeometry>
        </mxCell>
        <mxCell id="Lp6GJttOj30es9o93M_a-148" value="Les Matières sont:&lt;div&gt;-&lt;/div&gt;&lt;div&gt;-&lt;/div&gt;&lt;div&gt;-......&lt;/div&gt;" style="ellipse;whiteSpace=wrap;html=1;fillColor=#ffe6cc;strokeColor=#d79b00;" vertex="1" parent="1">
          <mxGeometry x="1513.5" y="235" width="180" height="85" as="geometry" />
        </mxCell>
        <mxCell id="Lp6GJttOj30es9o93M_a-150" value="" style="endArrow=classic;html=1;rounded=0;entryX=0.96;entryY=0.7;entryDx=0;entryDy=0;entryPerimeter=0;" edge="1" parent="1" target="Lp6GJttOj30es9o93M_a-57">
          <mxGeometry width="50" height="50" relative="1" as="geometry">
            <mxPoint x="-450" y="290" as="sourcePoint" />
            <mxPoint x="-1055" y="136" as="targetPoint" />
          </mxGeometry>
        </mxCell>
        <mxCell id="Lp6GJttOj30es9o93M_a-57" value="Genre" style="ellipse;shape=cloud;whiteSpace=wrap;html=1;fillColor=#ffe6cc;strokeColor=#d79b00;" vertex="1" parent="1">
          <mxGeometry x="-970" y="150" width="120" height="60" as="geometry" />
        </mxCell>
        <mxCell id="Lp6GJttOj30es9o93M_a-151" value="Matiere" style="ellipse;shape=cloud;whiteSpace=wrap;html=1;fillColor=#ffe6cc;strokeColor=#d79b00;" vertex="1" parent="1">
          <mxGeometry x="-990" y="500" width="120" height="80" as="geometry" />
        </mxCell>
        <mxCell id="Lp6GJttOj30es9o93M_a-152" value="Moyenne" style="ellipse;shape=cloud;whiteSpace=wrap;html=1;fillColor=#ffe6cc;strokeColor=#d79b00;" vertex="1" parent="1">
          <mxGeometry x="-1000" y="550" width="120" height="80" as="geometry" />
        </mxCell>
        <mxCell id="Lp6GJttOj30es9o93M_a-153" value="Coefficient" style="ellipse;shape=cloud;whiteSpace=wrap;html=1;fillColor=#ffe6cc;strokeColor=#d79b00;" vertex="1" parent="1">
          <mxGeometry x="-990" y="605" width="120" height="80" as="geometry" />
        </mxCell>
        <mxCell id="Lp6GJttOj30es9o93M_a-154" value="Moyenne Annuelle" style="ellipse;shape=cloud;whiteSpace=wrap;html=1;fillColor=#ffe6cc;strokeColor=#d79b00;" vertex="1" parent="1">
          <mxGeometry x="-990" y="662.5" width="140" height="67.5" as="geometry" />
        </mxCell>
        <mxCell id="Lp6GJttOj30es9o93M_a-155" value="" style="endArrow=classic;html=1;rounded=0;exitX=0;exitY=0.25;exitDx=0;exitDy=0;entryX=0.875;entryY=0.5;entryDx=0;entryDy=0;entryPerimeter=0;" edge="1" parent="1" source="Lp6GJttOj30es9o93M_a-23" target="Lp6GJttOj30es9o93M_a-151">
          <mxGeometry width="50" height="50" relative="1" as="geometry">
            <mxPoint x="-770" y="610" as="sourcePoint" />
            <mxPoint x="-720" y="560" as="targetPoint" />
          </mxGeometry>
        </mxCell>
        <mxCell id="Lp6GJttOj30es9o93M_a-156" value="" style="endArrow=classic;html=1;rounded=0;exitX=0;exitY=0.25;exitDx=0;exitDy=0;entryX=0.875;entryY=0.5;entryDx=0;entryDy=0;entryPerimeter=0;" edge="1" parent="1" source="Lp6GJttOj30es9o93M_a-23" target="Lp6GJttOj30es9o93M_a-152">
          <mxGeometry width="50" height="50" relative="1" as="geometry">
            <mxPoint x="-770" y="610" as="sourcePoint" />
            <mxPoint x="-720" y="560" as="targetPoint" />
          </mxGeometry>
        </mxCell>
        <mxCell id="Lp6GJttOj30es9o93M_a-157" value="" style="endArrow=classic;html=1;rounded=0;exitX=0;exitY=1;exitDx=0;exitDy=0;entryX=0.939;entryY=0.5;entryDx=0;entryDy=0;entryPerimeter=0;" edge="1" parent="1" source="Lp6GJttOj30es9o93M_a-23" target="Lp6GJttOj30es9o93M_a-153">
          <mxGeometry width="50" height="50" relative="1" as="geometry">
            <mxPoint x="-770" y="610" as="sourcePoint" />
            <mxPoint x="-720" y="560" as="targetPoint" />
          </mxGeometry>
        </mxCell>
        <mxCell id="Lp6GJttOj30es9o93M_a-158" value="" style="endArrow=classic;html=1;rounded=0;entryX=0.96;entryY=0.7;entryDx=0;entryDy=0;entryPerimeter=0;" edge="1" parent="1" target="Lp6GJttOj30es9o93M_a-154">
          <mxGeometry width="50" height="50" relative="1" as="geometry">
            <mxPoint x="-440" y="580" as="sourcePoint" />
            <mxPoint x="-720" y="560" as="targetPoint" />
          </mxGeometry>
        </mxCell>
        <mxCell id="Lp6GJttOj30es9o93M_a-159" value="" style="endArrow=classic;html=1;rounded=0;exitX=0.55;exitY=0.95;exitDx=0;exitDy=0;exitPerimeter=0;entryX=1;entryY=1;entryDx=0;entryDy=0;" edge="1" parent="1" target="Lp6GJttOj30es9o93M_a-2">
          <mxGeometry width="50" height="50" relative="1" as="geometry">
            <mxPoint x="677" y="826" as="sourcePoint" />
            <mxPoint x="-241" y="50" as="targetPoint" />
            <Array as="points">
              <mxPoint x="-229" y="830" />
            </Array>
          </mxGeometry>
        </mxCell>
      </root>
    </mxGraphModel>
  </diagram>
</mxfile>
